<svg version="1.1" id="Layer_1" xmlns="http://www.w3.org/2000/svg" xmlns:xlink="http://www.w3.org/1999/xlink" x="0px" y="0px"
	 width="100%" viewBox="0 0 834 834" enable-background="new 0 0 834 834" xml:space="preserve">
<path fill="#FFFFFF" opacity="1.000000" stroke="none" 
	d="
M765.000000,835.000000 
	C510.000061,835.000000 255.500153,835.000000 1.000171,835.000000 
	C1.000114,557.000183 1.000114,279.000305 1.000057,1.000357 
	C278.999756,1.000238 556.999512,1.000238 834.999451,1.000119 
	C834.999634,278.999664 834.999634,556.999329 834.999817,834.999512 
	C811.833313,835.000000 788.666687,835.000000 765.000000,835.000000 
M383.500000,390.000000 
	C390.324829,396.782196 397.149658,403.564362 403.827148,410.200165 
	C387.248596,432.339844 370.926605,454.136932 354.064728,476.654968 
	C356.076111,476.848816 356.847015,476.987579 357.617950,476.988007 
	C380.605957,477.000305 403.595154,477.099121 426.580109,476.834229 
	C428.716522,476.809631 431.401947,474.925354 432.846924,473.117065 
	C438.560974,465.966339 443.861176,458.485992 449.353851,451.157135 
	C459.931732,437.043213 470.536194,422.949219 481.180054,408.779755 
	C464.742371,392.319214 448.549561,376.013275 432.180237,359.886475 
	C430.893738,358.619049 428.381165,358.091492 426.432709,358.078583 
	C406.943726,357.949188 387.453552,358.000000 367.963715,358.000000 
	C366.377411,358.000000 364.791107,358.000000 363.492828,358.000000 
	C362.000916,365.338226 363.012634,370.878906 368.768982,375.485626 
	C373.939606,379.623596 378.288574,384.788269 383.500000,390.000000 
z"/>
<path fill="#5858F5" opacity="1.000000" stroke="none" 
	d="
M383.250000,389.750000 
	C378.288574,384.788269 373.939606,379.623596 368.768982,375.485626 
	C363.012634,370.878906 362.000916,365.338226 363.492828,358.000000 
	C364.791107,358.000000 366.377411,358.000000 367.963715,358.000000 
	C387.453552,358.000000 406.943726,357.949188 426.432709,358.078583 
	C428.381165,358.091492 430.893738,358.619049 432.180237,359.886475 
	C448.549561,376.013275 464.742371,392.319214 481.180054,408.779755 
	C470.536194,422.949219 459.931732,437.043213 449.353851,451.157135 
	C443.861176,458.485992 438.560974,465.966339 432.846924,473.117065 
	C431.401947,474.925354 428.716522,476.809631 426.580109,476.834229 
	C403.595154,477.099121 380.605957,477.000305 357.617950,476.988007 
	C356.847015,476.987579 356.076111,476.848816 354.064728,476.654968 
	C370.926605,454.136932 387.248596,432.339844 403.827148,410.200165 
	C397.149658,403.564362 390.324829,396.782196 383.250000,389.750000 
M419.501007,426.000824 
	C417.256012,423.623840 415.011047,421.246857 412.659088,418.756592 
	C400.943756,434.404114 389.665131,449.468323 378.036652,464.999847 
	C392.702576,464.999847 406.523865,465.156250 420.334351,464.840515 
	C422.544983,464.790009 425.303192,463.121399 426.778992,461.345520 
	C431.019440,456.242615 434.732208,450.701172 438.804810,445.123260 
	C432.535614,438.914642 426.268097,432.707703 419.501007,426.000824 
M432.992493,391.517853 
	C428.632690,397.410950 424.272858,403.304047 420.791840,408.009277 
	C429.759308,416.987427 438.398804,425.637238 447.056091,434.304871 
	C452.817139,426.572754 459.034973,418.227478 464.717529,410.600677 
	C455.684479,401.595520 447.111694,393.049164 438.488312,384.452423 
	C437.026367,386.371582 435.263855,388.685333 432.992493,391.517853 
M412.511719,398.952850 
	C418.393768,390.933350 424.275848,382.913849 430.554474,374.353668 
	C428.116119,372.769257 426.017609,370.244690 423.855743,370.189240 
	C409.788879,369.828491 395.708282,370.003998 380.590088,370.003998 
	C390.851074,380.285431 400.325928,389.803070 409.866821,399.254028 
	C410.258881,399.642365 411.271515,399.404236 412.511719,398.952850 
z"/>
<path fill="#FFFFFF" opacity="1.000000" stroke="none" 
	d="
M419.750793,426.250793 
	C426.268097,432.707703 432.535614,438.914642 438.804810,445.123260 
	C434.732208,450.701172 431.019440,456.242615 426.778992,461.345520 
	C425.303192,463.121399 422.544983,464.790009 420.334351,464.840515 
	C406.523865,465.156250 392.702576,464.999847 378.036652,464.999847 
	C389.665131,449.468323 400.943756,434.404114 412.659088,418.756592 
	C415.011047,421.246857 417.256012,423.623840 419.750793,426.250793 
z"/>
<path fill="#FFFFFF" opacity="1.000000" stroke="none" 
	d="
M433.246948,391.258453 
	C435.263855,388.685333 437.026367,386.371582 438.488312,384.452423 
	C447.111694,393.049164 455.684479,401.595520 464.717529,410.600677 
	C459.034973,418.227478 452.817139,426.572754 447.056091,434.304871 
	C438.398804,425.637238 429.759308,416.987427 420.791840,408.009277 
	C424.272858,403.304047 428.632690,397.410950 433.246948,391.258453 
z"/>
<path fill="#FFFFFF" opacity="1.000000" stroke="none" 
	d="
M412.253357,399.205444 
	C411.271515,399.404236 410.258881,399.642365 409.866821,399.254028 
	C400.325928,389.803070 390.851074,380.285431 380.590088,370.003998 
	C395.708282,370.003998 409.788879,369.828491 423.855743,370.189240 
	C426.017609,370.244690 428.116119,372.769257 430.554474,374.353668 
	C424.275848,382.913849 418.393768,390.933350 412.253357,399.205444 
z"/>
</svg>