<svg version="1.1" id="Layer_1" xmlns="http://www.w3.org/2000/svg" xmlns:xlink="http://www.w3.org/1999/xlink" x="0px" y="0px"
	 width="100%" viewBox="0 0 834 834" enable-background="new 0 0 834 834" xml:space="preserve">
<path fill="#FFFFFF" opacity="1.000000" stroke="none" 
	d="
M772.000000,835.000000 
	C514.666748,835.000000 257.833496,835.000000 1.000172,835.000000 
	C1.000115,557.000183 1.000115,279.000305 1.000057,1.000359 
	C278.999756,1.000239 556.999512,1.000239 834.999451,1.000120 
	C834.999634,278.999664 834.999634,556.999329 834.999817,834.999512 
	C814.166687,835.000000 793.333313,835.000000 772.000000,835.000000 
M172.505524,467.000000 
	C187.168396,466.999969 201.832672,467.096436 216.492416,466.881927 
	C218.397537,466.854065 220.941650,465.731110 222.070374,464.257782 
	C234.844833,447.583344 247.321854,430.681152 260.084778,413.997742 
	C262.519318,410.815338 261.719574,409.075439 259.197540,406.601379 
	C247.184799,394.816895 235.419266,382.779755 223.357956,371.046082 
	C221.687592,369.421173 218.872543,368.167664 216.565735,368.131653 
	C200.573761,367.881989 184.576019,367.992584 168.580170,368.012756 
	C167.141586,368.014587 165.703217,368.194641 164.469177,368.278107 
	C162.926453,374.378784 164.629929,378.642059 169.032883,382.731110 
	C178.912018,391.905914 188.271652,401.640106 197.987473,411.290253 
	C184.158997,429.772858 170.506210,448.020660 156.306107,467.000000 
	C162.191025,467.000000 166.849731,467.000000 172.505524,467.000000 
M329.133270,437.446045 
	C333.643585,427.666931 334.029297,417.447388 331.887238,407.127075 
	C329.866760,397.392456 324.438873,390.074066 314.918243,386.472198 
	C301.939392,381.562012 288.507812,385.081055 275.382629,383.884277 
	C275.382629,407.728943 275.382629,430.760529 275.382629,454.000000 
	C283.078003,454.000000 290.392181,454.040680 297.705719,453.991089 
	C310.728241,453.902740 322.008484,450.317017 329.133270,437.446045 
M487.016510,449.466888 
	C487.137268,449.200439 487.311584,448.692902 487.370270,448.705933 
	C487.808380,448.803253 488.332550,448.893402 488.630219,449.187622 
	C498.049683,458.498291 511.569977,455.139587 517.739563,446.439667 
	C520.611328,442.390106 522.153137,437.118622 523.282227,432.169373 
	C525.738892,421.400696 520.307373,409.053528 510.044739,404.001068 
	C501.691711,399.888763 494.261658,402.148193 486.872375,408.006744 
	C486.872375,397.996368 486.872375,388.741028 486.872375,379.304047 
	C481.798492,379.304047 477.083252,379.304047 472.353607,379.304047 
	C472.353607,404.318024 472.353607,429.026245 472.353607,453.808075 
	C477.330231,453.808075 481.951324,453.808075 486.783630,453.808075 
	C486.863159,452.508209 486.932220,451.379089 487.016510,449.466888 
M387.000000,425.678101 
	C385.724854,421.351837 385.091125,416.692902 383.052582,412.762573 
	C377.267303,401.608521 362.457062,399.869080 351.224274,403.531647 
	C341.505768,406.700531 333.857971,415.441101 335.053741,430.958405 
	C335.868195,441.527313 340.737946,449.974854 351.534943,452.843506 
	C356.233032,454.091736 361.414795,454.234192 366.307281,453.889740 
	C377.017670,453.135742 384.757355,445.695557 386.586884,435.000000 
	C383.224915,435.000000 379.901001,435.144501 376.596069,434.956146 
	C373.738403,434.793304 371.793304,435.353394 370.146057,438.149933 
	C367.450928,442.725525 362.495941,442.735657 358.149933,441.791809 
	C354.053375,440.902222 351.216309,437.807037 349.993744,433.000000 
	C356.350983,433.000000 362.304504,433.000000 368.257996,433.000000 
	C374.363861,433.000000 380.469696,433.000000 387.000000,433.000000 
	C387.000000,430.516357 387.000000,428.560181 387.000000,425.678101 
M529.055237,441.074799 
	C537.489258,457.038910 557.614807,457.627350 569.447998,449.806030 
	C574.668396,446.355499 578.094727,439.764160 577.257446,435.001221 
	C576.481934,435.001221 575.661621,435.001251 574.841248,435.001251 
	C571.184021,435.001251 567.526733,435.001221 563.942932,435.001221 
	C561.055481,441.065826 557.523743,443.084381 550.822632,441.921570 
	C546.231140,441.124817 542.871094,438.589264 541.875854,432.843018 
	C554.477417,432.843018 566.666870,432.843018 578.786743,432.843018 
	C579.810730,417.906586 574.383728,404.675873 558.624695,402.367523 
	C548.444763,400.876312 538.996338,402.625061 532.145508,411.355988 
	C525.109192,420.323273 525.838745,430.184967 529.055237,441.074799 
M626.000000,426.697083 
	C625.102905,448.581177 642.719543,458.088715 660.565063,453.584686 
	C674.471802,450.074768 679.010803,438.949188 678.799011,427.299957 
	C678.658020,419.542206 676.110535,411.958649 669.253845,407.102936 
	C655.297791,397.219666 628.580261,400.350037 626.000000,426.697083 
M417.083984,441.951538 
	C409.017914,438.045105 406.289581,433.255707 408.131531,424.555786 
	C409.147858,419.755493 411.881531,416.113342 417.338654,414.768494 
	C421.826996,413.662384 425.177979,414.940887 427.591827,418.249695 
	C430.048859,421.617706 433.012024,422.384979 436.829315,422.048462 
	C439.632660,421.801361 442.475311,422.000000 445.328644,422.000000 
	C443.016937,408.675690 431.431152,400.367950 416.392639,402.114502 
	C400.771027,403.928772 392.923767,413.199982 393.273773,428.589417 
	C393.643646,444.852783 401.819611,453.179382 418.917114,454.920685 
	C432.052368,456.258514 443.647552,446.968781 445.494873,434.131592 
	C440.505096,434.131592 435.534210,434.131592 430.612549,434.131592 
	C428.120605,440.296417 425.331207,442.003113 417.083984,441.951538 
M586.000000,444.462036 
	C586.000000,447.555420 586.000000,450.648804 586.000000,453.592346 
	C591.088135,453.592346 595.469604,453.592346 599.738770,453.592346 
	C599.738770,428.606445 599.738770,404.028961 599.738770,379.320740 
	C595.091431,379.320740 590.711792,379.320740 586.000000,379.320740 
	C586.000000,400.917908 586.000000,422.195984 586.000000,444.462036 
M608.000000,394.503448 
	C608.000000,414.237762 608.000000,433.972046 608.000000,453.602600 
	C613.066956,453.602600 617.446960,453.602600 621.750488,453.602600 
	C621.750488,428.628143 621.750488,404.051819 621.750488,379.308594 
	C617.117188,379.308594 612.737427,379.308594 608.000000,379.308594 
	C608.000000,384.241791 608.000000,388.873413 608.000000,394.503448 
M454.711914,453.996582 
	C458.326843,453.996582 461.941742,453.996582 465.702911,453.996582 
	C465.702911,436.782288 465.702911,420.081177 465.702911,403.356323 
	C461.019623,403.356323 456.639526,403.356323 452.002777,403.356323 
	C452.002777,419.503754 451.971771,435.296539 452.078217,451.088379 
	C452.084747,452.054535 453.178558,453.013367 454.711914,453.996582 
M456.867065,379.008057 
	C455.528290,379.567017 454.026886,379.899933 452.879822,380.725281 
	C448.626617,383.785431 447.950958,390.945465 451.435303,394.650055 
	C454.663300,398.082092 462.409180,398.342621 464.882996,394.247375 
	C466.621796,391.368896 467.359741,386.937714 466.535187,383.713776 
	C465.630554,380.176605 461.758728,378.531921 456.867065,379.008057 
z"/>
<path fill="#FFD43B" opacity="1.000000" stroke="none" 
	d="
M172.006973,467.000000 
	C166.849731,467.000000 162.191025,467.000000 156.306107,467.000000 
	C170.506210,448.020660 184.158997,429.772858 197.987473,411.290253 
	C188.271652,401.640106 178.912018,391.905914 169.032883,382.731110 
	C164.629929,378.642059 162.926453,374.378784 164.469177,368.278107 
	C165.703217,368.194641 167.141586,368.014587 168.580170,368.012756 
	C184.576019,367.992584 200.573761,367.881989 216.565735,368.131653 
	C218.872543,368.167664 221.687592,369.421173 223.357956,371.046082 
	C235.419266,382.779755 247.184799,394.816895 259.197540,406.601379 
	C261.719574,409.075439 262.519318,410.815338 260.084778,413.997742 
	C247.321854,430.681152 234.844833,447.583344 222.070374,464.257782 
	C220.941650,465.731110 218.397537,466.854065 216.492416,466.881927 
	C201.832672,467.096436 187.168396,466.999969 172.006973,467.000000 
M201.483292,423.976257 
	C193.336655,434.725342 185.190002,445.474426 176.455765,456.998810 
	C189.209488,456.998810 200.642944,457.033997 212.075470,456.946899 
	C213.281021,456.937683 214.952225,456.581024 215.606339,455.752869 
	C219.518860,450.799194 223.196472,445.660034 226.659943,440.978973 
	C219.249649,433.552948 212.239014,426.527466 205.004105,419.277222 
	C204.046600,420.544220 202.970734,421.967834 201.483292,423.976257 
M238.090836,425.653046 
	C241.700226,420.900482 245.309631,416.147919 248.375351,412.111206 
	C240.832169,404.531921 233.811691,397.477875 226.614685,390.246429 
	C221.631104,396.858032 216.456039,403.723724 211.855759,409.826843 
	C219.205124,417.197723 226.337997,424.351471 233.629883,431.664703 
	C234.861710,430.134399 236.384689,428.242371 238.090836,425.653046 
M188.499969,387.999969 
	C193.621292,393.120239 198.742630,398.240509 203.916901,403.413727 
	C209.491837,395.996979 214.599747,389.201538 220.046097,381.955841 
	C217.943954,380.599396 215.969803,378.248718 213.922546,378.183167 
	C202.527985,377.818573 191.115677,378.008148 178.111038,378.008148 
	C182.101562,381.838409 185.050735,384.669159 188.499969,387.999969 
z"/>
<path fill="#5858F5" opacity="1.000000" stroke="none" 
	d="
M329.044312,437.817566 
	C322.008484,450.317017 310.728241,453.902740 297.705719,453.991089 
	C290.392181,454.040680 283.078003,454.000000 275.382629,454.000000 
	C275.382629,430.760529 275.382629,407.728943 275.382629,383.884277 
	C288.507812,385.081055 301.939392,381.562012 314.918243,386.472198 
	C324.438873,390.074066 329.866760,397.392456 331.887238,407.127075 
	C334.029297,417.447388 333.643585,427.666931 329.044312,437.817566 
M289.000000,429.462067 
	C289.000000,432.553253 289.000000,435.644409 289.000000,438.645905 
	C306.553711,440.212463 312.447601,438.955536 315.954651,431.763489 
	C320.424011,422.597961 320.899475,412.609406 315.242798,404.156708 
	C308.952209,394.756744 298.404602,398.686646 289.490448,398.077698 
	C289.234863,398.947540 289.066986,399.253998 289.065948,399.560974 
	C289.033966,409.198669 289.018219,418.836365 289.000000,429.462067 
z"/>
<path fill="#5858F5" opacity="1.000000" stroke="none" 
	d="
M487.008911,449.858398 
	C486.932220,451.379089 486.863159,452.508209 486.783630,453.808075 
	C481.951324,453.808075 477.330231,453.808075 472.353607,453.808075 
	C472.353607,429.026245 472.353607,404.318024 472.353607,379.304047 
	C477.083252,379.304047 481.798492,379.304047 486.872375,379.304047 
	C486.872375,388.741028 486.872375,397.996368 486.872375,408.006744 
	C494.261658,402.148193 501.691711,399.888763 510.044739,404.001068 
	C520.307373,409.053528 525.738892,421.400696 523.282227,432.169373 
	C522.153137,437.118622 520.611328,442.390106 517.739563,446.439667 
	C511.569977,455.139587 498.049683,458.498291 488.630219,449.187622 
	C488.332550,448.893402 487.808380,448.803253 487.370270,448.705933 
	C487.311584,448.692902 487.137268,449.200439 487.008911,449.858398 
M487.000793,423.923706 
	C487.001282,427.411407 486.879028,430.904602 487.033722,434.385437 
	C487.221466,438.610199 489.804932,441.305817 493.425568,442.949951 
	C497.303009,444.710663 500.937408,444.515350 504.263947,441.297119 
	C510.523071,435.241730 510.742340,421.230621 504.505951,415.263550 
	C500.125183,411.071960 493.430542,411.046814 490.276581,415.552673 
	C488.746826,417.738159 488.069550,420.520294 487.000793,423.923706 
z"/>
<path fill="#5858F5" opacity="1.000000" stroke="none" 
	d="
M387.000000,426.141052 
	C387.000000,428.560181 387.000000,430.516357 387.000000,433.000000 
	C380.469696,433.000000 374.363861,433.000000 368.257996,433.000000 
	C362.304504,433.000000 356.350983,433.000000 349.993744,433.000000 
	C351.216309,437.807037 354.053375,440.902222 358.149933,441.791809 
	C362.495941,442.735657 367.450928,442.725525 370.146057,438.149933 
	C371.793304,435.353394 373.738403,434.793304 376.596069,434.956146 
	C379.901001,435.144501 383.224915,435.000000 386.586884,435.000000 
	C384.757355,445.695557 377.017670,453.135742 366.307281,453.889740 
	C361.414795,454.234192 356.233032,454.091736 351.534943,452.843506 
	C340.737946,449.974854 335.868195,441.527313 335.053741,430.958405 
	C333.857971,415.441101 341.505768,406.700531 351.224274,403.531647 
	C362.457062,399.869080 377.267303,401.608521 383.052582,412.762573 
	C385.091125,416.692902 385.724854,421.351837 387.000000,426.141052 
M354.031555,423.000000 
	C359.930573,423.000000 365.829590,423.000000 371.942413,423.000000 
	C370.000671,417.739777 365.380096,413.996429 361.424103,414.035278 
	C356.103424,414.087524 352.369141,417.151611 350.675812,422.999939 
	C351.545624,422.999939 352.360229,422.999939 354.031555,423.000000 
z"/>
<path fill="#5858F5" opacity="1.000000" stroke="none" 
	d="
M529.019226,440.681763 
	C525.838745,430.184967 525.109192,420.323273 532.145508,411.355988 
	C538.996338,402.625061 548.444763,400.876312 558.624695,402.367523 
	C574.383728,404.675873 579.810730,417.906586 578.786743,432.843018 
	C566.666870,432.843018 554.477417,432.843018 541.875854,432.843018 
	C542.871094,438.589264 546.231140,441.124817 550.822632,441.921570 
	C557.523743,443.084381 561.055481,441.065826 563.942932,435.001221 
	C567.526733,435.001221 571.184021,435.001251 574.841248,435.001251 
	C575.661621,435.001251 576.481934,435.001221 577.257446,435.001221 
	C578.094727,439.764160 574.668396,446.355499 569.447998,449.806030 
	C557.614807,457.627350 537.489258,457.038910 529.019226,440.681763 
M553.399353,414.127594 
	C548.355713,415.151520 543.513855,416.439240 542.070679,422.590576 
	C549.517822,422.590576 556.657166,422.590576 563.959167,422.590576 
	C561.532410,416.898010 560.036194,415.725555 553.399353,414.127594 
z"/>
<path fill="#5858F5" opacity="1.000000" stroke="none" 
	d="
M626.000732,426.247192 
	C628.580261,400.350037 655.297791,397.219666 669.253845,407.102936 
	C676.110535,411.958649 678.658020,419.542206 678.799011,427.299957 
	C679.010803,438.949188 674.471802,450.074768 660.565063,453.584686 
	C642.719543,458.088715 625.102905,448.581177 626.000732,426.247192 
M645.651428,440.109619 
	C653.526794,444.454193 661.004272,442.199768 663.287842,433.895142 
	C664.388062,429.893707 664.282593,424.727478 662.654053,420.990326 
	C659.683594,414.174011 649.599487,410.982910 643.584900,418.857239 
	C638.691956,425.263031 639.335510,433.678558 645.651428,440.109619 
z"/>
<path fill="#5858F5" opacity="1.000000" stroke="none" 
	d="
M417.499573,441.971985 
	C425.331207,442.003113 428.120605,440.296417 430.612549,434.131592 
	C435.534210,434.131592 440.505096,434.131592 445.494873,434.131592 
	C443.647552,446.968781 432.052368,456.258514 418.917114,454.920685 
	C401.819611,453.179382 393.643646,444.852783 393.273773,428.589417 
	C392.923767,413.199982 400.771027,403.928772 416.392639,402.114502 
	C431.431152,400.367950 443.016937,408.675690 445.328644,422.000000 
	C442.475311,422.000000 439.632660,421.801361 436.829315,422.048462 
	C433.012024,422.384979 430.048859,421.617706 427.591827,418.249695 
	C425.177979,414.940887 421.826996,413.662384 417.338654,414.768494 
	C411.881531,416.113342 409.147858,419.755493 408.131531,424.555786 
	C406.289581,433.255707 409.017914,438.045105 417.499573,441.971985 
z"/>
<path fill="#5858F5" opacity="1.000000" stroke="none" 
	d="
M586.000000,443.968048 
	C586.000000,422.195984 586.000000,400.917908 586.000000,379.320740 
	C590.711792,379.320740 595.091431,379.320740 599.738770,379.320740 
	C599.738770,404.028961 599.738770,428.606445 599.738770,453.592346 
	C595.469604,453.592346 591.088135,453.592346 586.000000,453.592346 
	C586.000000,450.648804 586.000000,447.555420 586.000000,443.968048 
z"/>
<path fill="#5858F5" opacity="1.000000" stroke="none" 
	d="
M608.000000,394.004211 
	C608.000000,388.873413 608.000000,384.241791 608.000000,379.308594 
	C612.737427,379.308594 617.117188,379.308594 621.750488,379.308594 
	C621.750488,404.051819 621.750488,428.628143 621.750488,453.602600 
	C617.446960,453.602600 613.066956,453.602600 608.000000,453.602600 
	C608.000000,433.972046 608.000000,414.237762 608.000000,394.004211 
z"/>
<path fill="#5858F5" opacity="1.000000" stroke="none" 
	d="
M454.239197,453.986084 
	C453.178558,453.013367 452.084747,452.054535 452.078217,451.088379 
	C451.971771,435.296539 452.002777,419.503754 452.002777,403.356323 
	C456.639526,403.356323 461.019623,403.356323 465.702911,403.356323 
	C465.702911,420.081177 465.702911,436.782288 465.702911,453.996582 
	C461.941742,453.996582 458.326843,453.996582 454.239197,453.986084 
z"/>
<path fill="#5858F5" opacity="1.000000" stroke="none" 
	d="
M457.278259,379.004578 
	C461.758728,378.531921 465.630554,380.176605 466.535187,383.713776 
	C467.359741,386.937714 466.621796,391.368896 464.882996,394.247375 
	C462.409180,398.342621 454.663300,398.082092 451.435303,394.650055 
	C447.950958,390.945465 448.626617,383.785431 452.879822,380.725281 
	C454.026886,379.899933 455.528290,379.567017 457.278259,379.004578 
z"/>
<path fill="#FFFFFF" opacity="1.000000" stroke="none" 
	d="
M201.689087,423.683838 
	C202.970734,421.967834 204.046600,420.544220 205.004105,419.277222 
	C212.239014,426.527466 219.249649,433.552948 226.659943,440.978973 
	C223.196472,445.660034 219.518860,450.799194 215.606339,455.752869 
	C214.952225,456.581024 213.281021,456.937683 212.075470,456.946899 
	C200.642944,457.033997 189.209488,456.998810 176.455765,456.998810 
	C185.190002,445.474426 193.336655,434.725342 201.689087,423.683838 
z"/>
<path fill="#FFFFFF" opacity="1.000000" stroke="none" 
	d="
M237.999252,426.001709 
	C236.384689,428.242371 234.861710,430.134399 233.629883,431.664703 
	C226.337997,424.351471 219.205124,417.197723 211.855759,409.826843 
	C216.456039,403.723724 221.631104,396.858032 226.614685,390.246429 
	C233.811691,397.477875 240.832169,404.531921 248.375351,412.111206 
	C245.309631,416.147919 241.700226,420.900482 237.999252,426.001709 
z"/>
<path fill="#FFFFFF" opacity="1.000000" stroke="none" 
	d="
M188.249939,387.749939 
	C185.050735,384.669159 182.101562,381.838409 178.111038,378.008148 
	C191.115677,378.008148 202.527985,377.818573 213.922546,378.183167 
	C215.969803,378.248718 217.943954,380.599396 220.046097,381.955841 
	C214.599747,389.201538 209.491837,395.996979 203.916901,403.413727 
	C198.742630,398.240509 193.621292,393.120239 188.249939,387.749939 
z"/>
<path fill="#FFFFFF" opacity="1.000000" stroke="none" 
	d="
M289.000000,428.968079 
	C289.018219,418.836365 289.033966,409.198669 289.065948,399.560974 
	C289.066986,399.253998 289.234863,398.947540 289.490448,398.077698 
	C298.404602,398.686646 308.952209,394.756744 315.242798,404.156708 
	C320.899475,412.609406 320.424011,422.597961 315.954651,431.763489 
	C312.447601,438.955536 306.553711,440.212463 289.000000,438.645905 
	C289.000000,435.644409 289.000000,432.553253 289.000000,428.968079 
z"/>
<path fill="#FFFFFF" opacity="1.000000" stroke="none" 
	d="
M487.003601,423.478027 
	C488.069550,420.520294 488.746826,417.738159 490.276581,415.552673 
	C493.430542,411.046814 500.125183,411.071960 504.505951,415.263550 
	C510.742340,421.230621 510.523071,435.241730 504.263947,441.297119 
	C500.937408,444.515350 497.303009,444.710663 493.425568,442.949951 
	C489.804932,441.305817 487.221466,438.610199 487.033722,434.385437 
	C486.879028,430.904602 487.001282,427.411407 487.003601,423.478027 
z"/>
<path fill="#FFFFFF" opacity="1.000000" stroke="none" 
	d="
M353.603180,422.999969 
	C352.360229,422.999939 351.545624,422.999939 350.675812,422.999939 
	C352.369141,417.151611 356.103424,414.087524 361.424103,414.035278 
	C365.380096,413.996429 370.000671,417.739777 371.942413,423.000000 
	C365.829590,423.000000 359.930573,423.000000 353.603180,422.999969 
z"/>
<path fill="#FFFFFF" opacity="1.000000" stroke="none" 
	d="
M553.729004,414.343628 
	C560.036194,415.725555 561.532410,416.898010 563.959167,422.590576 
	C556.657166,422.590576 549.517822,422.590576 542.070679,422.590576 
	C543.513855,416.439240 548.355713,415.151520 553.729004,414.343628 
z"/>
<path fill="#FFFFFF" opacity="1.000000" stroke="none" 
	d="
M645.360840,439.847961 
	C639.335510,433.678558 638.691956,425.263031 643.584900,418.857239 
	C649.599487,410.982910 659.683594,414.174011 662.654053,420.990326 
	C664.282593,424.727478 664.388062,429.893707 663.287842,433.895142 
	C661.004272,442.199768 653.526794,444.454193 645.360840,439.847961 
z"/>
</svg>