<svg version="1.1" id="Layer_1" xmlns="http://www.w3.org/2000/svg" xmlns:xlink="http://www.w3.org/1999/xlink" x="0px" y="0px"
	 width="100%" viewBox="0 0 834 834" enable-background="new 0 0 834 834" xml:space="preserve">
<path fill="#FFFFFF" opacity="1.000000" stroke="none" 
	d="
M765.000000,835.000000 
	C510.000061,835.000000 255.500153,835.000000 1.000171,835.000000 
	C1.000114,557.000183 1.000114,279.000305 1.000057,1.000357 
	C278.999756,1.000238 556.999512,1.000238 834.999451,1.000119 
	C834.999634,278.999664 834.999634,556.999329 834.999817,834.999512 
	C811.833313,835.000000 788.666687,835.000000 765.000000,835.000000 
M383.500000,390.000000 
	C390.301605,396.793152 397.103210,403.586273 403.777466,410.252258 
	C387.212677,432.387848 370.886871,454.204071 353.829956,476.997253 
	C379.432404,476.997253 403.389343,477.076691 427.343201,476.841949 
	C429.200806,476.823761 431.516418,474.976501 432.800323,473.337799 
	C438.559509,465.987274 444.003082,458.390198 449.596130,450.908661 
	C460.081451,436.882874 470.591339,422.875427 481.236023,408.666779 
	C464.692596,392.145386 448.365448,375.757782 431.870422,359.540924 
	C430.695587,358.385925 428.290649,358.072906 426.454010,358.063293 
	C406.974274,357.961182 387.493774,358.000000 368.013489,358.000031 
	C366.426971,358.000031 364.840454,358.000031 363.497711,358.000031 
	C361.996185,365.354218 363.025330,370.882294 368.776398,375.491730 
	C373.941895,379.631805 378.290833,384.790588 383.500000,390.000000 
z"/>
<path fill="#FFD43B" opacity="1.000000" stroke="none" 
	d="
M383.250000,389.750000 
	C378.290833,384.790588 373.941895,379.631805 368.776398,375.491730 
	C363.025330,370.882294 361.996185,365.354218 363.497711,358.000031 
	C364.840454,358.000031 366.426971,358.000031 368.013489,358.000031 
	C387.493774,358.000000 406.974274,357.961182 426.454010,358.063293 
	C428.290649,358.072906 430.695587,358.385925 431.870422,359.540924 
	C448.365448,375.757782 464.692596,392.145386 481.236023,408.666779 
	C470.591339,422.875427 460.081451,436.882874 449.596130,450.908661 
	C444.003082,458.390198 438.559509,465.987274 432.800323,473.337799 
	C431.516418,474.976501 429.200806,476.823761 427.343201,476.841949 
	C403.389343,477.076691 379.432404,476.997253 353.829956,476.997253 
	C370.886871,454.204071 387.212677,432.387848 403.777466,410.252258 
	C397.103210,403.586273 390.301605,396.793152 383.250000,389.750000 
M419.501099,426.000916 
	C417.258118,423.630463 415.015167,421.259979 412.652344,418.762848 
	C400.932861,434.417786 389.683044,449.445374 378.040070,464.998169 
	C392.931824,464.998169 407.060974,465.127380 421.181854,464.844543 
	C423.076080,464.806641 425.412231,463.077454 426.711487,461.462097 
	C430.893860,456.262146 434.686676,450.748871 438.823303,445.091705 
	C432.555054,438.900604 426.277893,432.700684 419.501099,426.000916 
M432.994720,391.517670 
	C428.638214,397.409607 424.281677,403.301544 420.773529,408.046051 
	C429.747742,417.018829 438.376831,425.646545 447.046204,434.314545 
	C452.808838,426.578613 459.025085,418.233734 464.682709,410.638794 
	C455.667114,401.613892 447.131897,393.069855 438.510406,384.439453 
	C437.033173,386.373901 435.267120,388.686615 432.994720,391.517670 
M412.506287,398.941803 
	C418.394257,390.923065 424.282227,382.904327 430.574097,374.335571 
	C428.087372,372.745392 425.973755,370.244537 423.797546,370.188843 
	C409.766174,369.829803 395.721130,370.005188 380.667267,370.005188 
	C390.896423,380.278198 400.342377,389.788849 409.854858,399.232483 
	C410.248932,399.623718 411.266052,399.387421 412.506287,398.941803 
z"/>
<path fill="#FFFFFF" opacity="1.000000" stroke="none" 
	d="
M419.750916,426.250854 
	C426.277893,432.700684 432.555054,438.900604 438.823303,445.091705 
	C434.686676,450.748871 430.893860,456.262146 426.711487,461.462097 
	C425.412231,463.077454 423.076080,464.806641 421.181854,464.844543 
	C407.060974,465.127380 392.931824,464.998169 378.040070,464.998169 
	C389.683044,449.445374 400.932861,434.417786 412.652344,418.762848 
	C415.015167,421.259979 417.258118,423.630463 419.750916,426.250854 
z"/>
<path fill="#FFFFFF" opacity="1.000000" stroke="none" 
	d="
M433.247864,391.258484 
	C435.267120,388.686615 437.033173,386.373901 438.510406,384.439453 
	C447.131897,393.069855 455.667114,401.613892 464.682709,410.638794 
	C459.025085,418.233734 452.808838,426.578613 447.046204,434.314545 
	C438.376831,425.646545 429.747742,417.018829 420.773529,408.046051 
	C424.281677,403.301544 428.638214,397.409607 433.247864,391.258484 
z"/>
<path fill="#FFFFFF" opacity="1.000000" stroke="none" 
	d="
M412.249573,399.192627 
	C411.266052,399.387421 410.248932,399.623718 409.854858,399.232483 
	C400.342377,389.788849 390.896423,380.278198 380.667267,370.005188 
	C395.721130,370.005188 409.766174,369.829803 423.797546,370.188843 
	C425.973755,370.244537 428.087372,372.745392 430.574097,374.335571 
	C424.282227,382.904327 418.394257,390.923065 412.249573,399.192627 
z"/>
</svg>