<?xml version="1.0" encoding="UTF-8"?>
<svg width="48" height="48" viewBox="0 0 48 48" fill="none" xmlns="http://www.w3.org/2000/svg">
  <path d="M21 4a2 2 0 000 4h4a2 2 0 100-4h-4z" fill="currentColor"/>
  <path fill-rule="evenodd" d="M8 10a4 4 0 014-4 6 6 0 016 6h4a6 6 0 016-6 4 4 0 014 4v22a4 4 0 01-4 4H12a4 4 0 01-4-4V10zm6 8a2 2 0 000 4h.02a2 2 0 100-4H14zm6 0a2 2 0 000 4h6a2 2 0 100-4h-6zm-6 8a2 2 0 100 4h.02a2 2 0 100-4H14zm6 0a2 2 0 100 4h6a2 2 0 100-4h-6z" clip-rule="evenodd" fill="currentColor"/>
</svg>